<svg width="9" height="14" viewBox="0 0 9 14" fill="none" xmlns="http://www.w3.org/2000/svg">
<path opacity="0.5" d="M1.48535 13.4834H7.67871C8.51953 13.4834 8.93652 13.0664 8.93652 12.1504V7.37891C8.93652 6.55176 8.59473 6.12109 7.89062 6.05273V4.43262C7.89062 1.99219 6.28418 0.80957 4.58203 0.80957C2.87988 0.80957 1.27344 1.99219 1.27344 4.43262V6.07324C0.624023 6.17578 0.227539 6.59961 0.227539 7.37891V12.1504C0.227539 13.0664 0.644531 13.4834 1.48535 13.4834ZM2.37402 4.30273C2.37402 2.7168 3.38574 1.8623 4.58203 1.8623C5.77148 1.8623 6.79004 2.7168 6.79004 4.30273V6.0459H2.37402V4.30273Z" fill="white"/>
</svg>
