<svg width="25" height="12" viewBox="0 0 25 12" fill="none" xmlns="http://www.w3.org/2000/svg">
<path d="M24 4C24.5523 4 25 4.44772 25 5V7C25 7.55228 24.5523 8 24 8V4Z" fill="#EBEBF5" fill-opacity="0.3"/>
<path fill-rule="evenodd" clip-rule="evenodd" d="M3 0H20C21.6569 0 23 1.34315 23 3V9C23 10.6569 21.6569 12 20 12H3C1.34315 12 0 10.6569 0 9V3C0 1.34315 1.34315 0 3 0ZM3 1C1.89543 1 1 1.89543 1 3V9C1 10.1046 1.89543 11 3 11H20C21.1046 11 22 10.1046 22 9V3C22 1.89543 21.1046 1 20 1H3Z" fill="#EBEBF5" fill-opacity="0.3"/>
<path d="M11 2H2.9C2.40294 2 2 2.44772 2 3V9C2 9.55228 2.40294 10 2.9 10H11V2Z" fill="white"/>
</svg>
