<svg width="7" height="11" viewBox="0 0 7 11" fill="none" xmlns="http://www.w3.org/2000/svg">
<path d="M0.90332 10.0288H5.32227C5.92773 10.0288 6.22559 9.73096 6.22559 9.07178V5.65869C6.22559 5.06787 5.98145 4.76514 5.47852 4.71631V3.55908C5.47852 1.81592 4.32617 0.971191 3.11523 0.971191C1.89941 0.971191 0.74707 1.81592 0.74707 3.55908V4.73584C0.283203 4.80908 0 5.10693 0 5.65869V9.07178C0 9.73096 0.297852 10.0288 0.90332 10.0288ZM1.53809 3.46631C1.53809 2.3335 2.26074 1.72803 3.11523 1.72803C3.96484 1.72803 4.6875 2.3335 4.6875 3.46631V4.70654L1.53809 4.71631V3.46631Z" fill="#9B9BA1"/>
</svg>
