<svg width="16" height="19" viewBox="0 0 16 19" fill="none" xmlns="http://www.w3.org/2000/svg">
<path d="M7.57812 9.11133C7.79785 9.11133 7.96484 9.04102 8.09668 8.90918L11.5156 5.46387C11.6738 5.30566 11.7441 5.12988 11.7441 4.92773C11.7441 4.73438 11.665 4.54102 11.5156 4.3916L8.09668 0.919922C7.96484 0.779297 7.79785 0.700195 7.57812 0.700195C7.18262 0.700195 6.875 1.02539 6.875 1.43848C6.875 1.62305 6.94531 1.79883 7.06836 1.94824L9.21289 4.04004C8.76465 3.96094 8.30762 3.92578 7.85938 3.92578C3.76367 3.92578 0.485352 7.19531 0.485352 11.291C0.485352 15.3867 3.77246 18.6826 7.86816 18.6826C11.9551 18.6826 15.2422 15.3867 15.2422 11.291C15.2422 10.8604 14.9346 10.5439 14.4951 10.5439C14.0732 10.5439 13.792 10.8604 13.792 11.291C13.792 14.5869 11.1553 17.2324 7.86816 17.2324C4.57227 17.2324 1.93555 14.5869 1.93555 11.291C1.93555 7.98633 4.56348 5.3584 7.85938 5.3584C8.46582 5.3584 9.01074 5.40234 9.49414 5.49902L7.07715 7.89844C6.94531 8.03906 6.875 8.20605 6.875 8.39062C6.875 8.80371 7.18262 9.11133 7.57812 9.11133Z" fill="white"/>
</svg>
